<svg width="423" height="438" viewBox="0 0 423 438" fill="none" xmlns="http://www.w3.org/2000/svg">
<g clip-path="url(#clip0_124_816)">
<rect x="2.5" y="71" width="180.785" height="376.636" rx="18.0785" fill="#303030"/>
<rect x="2.5" y="102.637" width="180.785" height="37.6636" fill="#5E5E5E"/>
<rect x="23.5916" y="108.664" width="66.288" height="27.1178" rx="13.5589" fill="#111111"/>
<circle cx="40.1635" cy="122.222" r="9.03927" fill="#262626"/>
<circle cx="73.3076" cy="122.222" r="9.03927" fill="#262626"/>
<circle cx="162.194" cy="122.222" r="6.02618" fill="#D9D9D9"/>
<path d="M0.993408 206.589C0.993408 205.757 1.66791 205.083 2.49995 205.083V205.083L2.49995 242.746V242.746C1.66791 242.746 0.993408 242.072 0.993408 241.24L0.993408 206.589Z" fill="#5E5E5E"/>
<path d="M0.993408 173.445C0.993408 172.613 1.66791 171.938 2.49995 171.938V171.938L2.49995 194.537V194.537C1.66791 194.537 0.993408 193.862 0.993408 193.03L0.993408 173.445Z" fill="#5E5E5E"/>
<path d="M90.1564 365.607C92.7545 365.607 94.507 366.729 95.5062 367.667L99.4109 363.854C97.0128 361.625 93.8921 360.257 90.1564 360.257C84.7452 360.257 80.0718 363.362 77.7966 367.882L82.2701 371.356C83.3924 368.02 86.4977 365.607 90.1564 365.607Z" fill="#161616"/>
<path d="M103.439 374.4C103.439 373.262 103.346 372.432 103.147 371.571H90.1564V376.706H97.7814C97.6277 377.982 96.7975 379.903 94.9528 381.195L99.3187 384.577C101.932 382.163 103.439 378.612 103.439 374.4Z" fill="#161616"/>
<path d="M82.2855 376.829C81.9934 375.968 81.8243 375.046 81.8243 374.092C81.8243 373.139 81.9934 372.217 82.2701 371.356L77.7966 367.882C76.8589 369.757 76.3208 371.863 76.3208 374.092C76.3208 376.321 76.8589 378.428 77.7966 380.303L82.2855 376.829Z" fill="#161616"/>
<path d="M90.1564 387.928C93.892 387.928 97.0281 386.698 99.3187 384.577L94.9528 381.195C93.7844 382.009 92.2164 382.578 90.1564 382.578C86.4976 382.578 83.3923 380.165 82.2855 376.829L77.8119 380.303C80.0871 384.823 84.7451 387.928 90.1564 387.928Z" fill="#161616"/>
<rect x="171.678" width="248.645" height="518.011" rx="24.8645" fill="#555555"/>
<rect x="177.895" y="6.21631" width="236.213" height="505.579" rx="20.7204" fill="#111111" stroke="black" stroke-width="8.28818"/>
<circle cx="296.001" cy="24.8646" r="6.21613" fill="black"/>
<path d="M420.324 184.412V184.412C421.468 184.412 422.396 185.34 422.396 186.484V234.141C422.396 235.286 421.468 236.213 420.324 236.213V236.213V184.412Z" fill="#5E5E5E"/>
<path d="M420.324 138.827V138.827C421.468 138.827 422.396 139.755 422.396 140.899V167.836C422.396 168.98 421.468 169.908 420.324 169.908V169.908V138.827Z" fill="#5E5E5E"/>
</g>
<defs>
<clipPath id="clip0_124_816">
<rect width="422" height="437" fill="white" transform="translate(0.5 0.0664062)"/>
</clipPath>
</defs>
</svg>
