<svg width="251" height="56" viewBox="0 0 251 56" fill="none" xmlns="http://www.w3.org/2000/svg">
<path d="M21.89 49.05C19.0667 49.05 16.445 48.555 14.025 47.565C11.605 46.5383 9.47833 45.1267 7.645 43.33C5.84833 41.4967 4.455 39.37 3.465 36.95C2.51167 34.53 2.035 31.9267 2.035 29.14C2.035 26.3533 2.51167 23.75 3.465 21.33C4.455 18.91 5.84833 16.8017 7.645 15.005C9.47833 13.2083 11.5867 11.7967 13.97 10.77C16.39 9.74333 19.03 9.23 21.89 9.23C24.97 9.23 27.6833 9.74333 30.03 10.77C32.3767 11.76 34.4483 13.135 36.245 14.895L31.185 19.955C30.1217 18.7817 28.82 17.865 27.28 17.205C25.74 16.545 23.9433 16.215 21.89 16.215C20.0933 16.215 18.4433 16.5267 16.94 17.15C15.4733 17.7367 14.19 18.6167 13.09 19.79C11.99 20.9267 11.1467 22.3017 10.56 23.915C9.97333 25.4917 9.68 27.2333 9.68 29.14C9.68 31.0833 9.97333 32.8433 10.56 34.42C11.1467 35.9967 11.99 37.3717 13.09 38.545C14.19 39.6817 15.4733 40.5617 16.94 41.185C18.4433 41.8083 20.0933 42.12 21.89 42.12C24.0533 42.12 25.905 41.79 27.445 41.13C29.0217 40.47 30.3417 39.535 31.405 38.325L36.465 43.385C34.6683 45.1817 32.5783 46.575 30.195 47.565C27.8117 48.555 25.0433 49.05 21.89 49.05ZM40.8951 48.5V8.735H48.1001V48.5H40.8951ZM65.5939 49.05C63.1739 49.05 60.9923 48.445 59.0489 47.235C57.1056 46.025 55.5839 44.375 54.4839 42.285C53.3839 40.195 52.8339 37.8483 52.8339 35.245C52.8339 32.605 53.3839 30.24 54.4839 28.15C55.5839 26.06 57.1056 24.41 59.0489 23.2C60.9923 21.99 63.1739 21.385 65.5939 21.385C67.5006 21.385 69.2056 21.77 70.7089 22.54C72.2123 23.31 73.4039 24.3917 74.2839 25.785C75.2006 27.1417 75.6956 28.6817 75.7689 30.405V39.975C75.6956 41.735 75.2006 43.2933 74.2839 44.65C73.4039 46.0067 72.2123 47.0883 70.7089 47.895C69.2056 48.665 67.5006 49.05 65.5939 49.05ZM66.9139 42.395C68.9306 42.395 70.5623 41.735 71.8089 40.415C73.0556 39.0583 73.6789 37.3167 73.6789 35.19C73.6789 33.7967 73.3856 32.5683 72.7989 31.505C72.2489 30.405 71.4606 29.5617 70.4339 28.975C69.4439 28.3517 68.2706 28.04 66.9139 28.04C65.5939 28.04 64.4206 28.3517 63.3939 28.975C62.4039 29.5617 61.6156 30.405 61.0289 31.505C60.4789 32.5683 60.2039 33.7967 60.2039 35.19C60.2039 36.62 60.4789 37.885 61.0289 38.985C61.6156 40.0483 62.4039 40.8917 63.3939 41.515C64.4206 42.1017 65.5939 42.395 66.9139 42.395ZM73.2939 48.5V41.35L74.4489 34.86L73.2939 28.48V21.935H80.4439V48.5H73.2939ZM95.9479 49.105C94.4446 49.105 92.9596 48.9033 91.4929 48.5C90.0629 48.0967 88.7429 47.5467 87.5329 46.85C86.3229 46.1167 85.2779 45.2367 84.3979 44.21L88.6879 39.865C89.6046 40.8917 90.6679 41.6617 91.8779 42.175C93.0879 42.6883 94.4263 42.945 95.8929 42.945C97.0663 42.945 97.9463 42.78 98.5329 42.45C99.1563 42.12 99.4679 41.625 99.4679 40.965C99.4679 40.2317 99.1379 39.6633 98.4779 39.26C97.8546 38.8567 97.0296 38.5267 96.0029 38.27C94.9763 37.9767 93.8946 37.665 92.7579 37.335C91.6579 36.9683 90.5946 36.51 89.5679 35.96C88.5413 35.3733 87.6979 34.585 87.0379 33.595C86.4146 32.5683 86.1029 31.2483 86.1029 29.635C86.1029 27.9483 86.5063 26.4817 87.3129 25.235C88.1563 23.9883 89.3479 23.0167 90.8879 22.32C92.4279 21.6233 94.2429 21.275 96.3329 21.275C98.5329 21.275 100.513 21.66 102.273 22.43C104.07 23.2 105.555 24.355 106.728 25.895L102.383 30.24C101.576 29.25 100.66 28.535 99.6329 28.095C98.6429 27.655 97.5613 27.435 96.3879 27.435C95.3246 27.435 94.4996 27.6 93.9129 27.93C93.3629 28.26 93.0879 28.7183 93.0879 29.305C93.0879 29.965 93.3996 30.4783 94.0229 30.845C94.6829 31.2117 95.5263 31.5417 96.5529 31.835C97.5796 32.0917 98.6429 32.4033 99.7429 32.77C100.88 33.1 101.943 33.5767 102.933 34.2C103.96 34.8233 104.785 35.6483 105.408 36.675C106.068 37.7017 106.398 39.0217 106.398 40.635C106.398 43.2383 105.463 45.31 103.593 46.85C101.723 48.3533 99.1746 49.105 95.9479 49.105ZM120.386 49.105C118.883 49.105 117.398 48.9033 115.931 48.5C114.501 48.0967 113.181 47.5467 111.971 46.85C110.761 46.1167 109.716 45.2367 108.836 44.21L113.126 39.865C114.043 40.8917 115.106 41.6617 116.316 42.175C117.526 42.6883 118.865 42.945 120.331 42.945C121.505 42.945 122.385 42.78 122.971 42.45C123.595 42.12 123.906 41.625 123.906 40.965C123.906 40.2317 123.576 39.6633 122.916 39.26C122.293 38.8567 121.468 38.5267 120.441 38.27C119.415 37.9767 118.333 37.665 117.196 37.335C116.096 36.9683 115.033 36.51 114.006 35.96C112.98 35.3733 112.136 34.585 111.476 33.595C110.853 32.5683 110.541 31.2483 110.541 29.635C110.541 27.9483 110.945 26.4817 111.751 25.235C112.595 23.9883 113.786 23.0167 115.326 22.32C116.866 21.6233 118.681 21.275 120.771 21.275C122.971 21.275 124.951 21.66 126.711 22.43C128.508 23.2 129.993 24.355 131.166 25.895L126.821 30.24C126.015 29.25 125.098 28.535 124.071 28.095C123.081 27.655 122 27.435 120.826 27.435C119.763 27.435 118.938 27.6 118.351 27.93C117.801 28.26 117.526 28.7183 117.526 29.305C117.526 29.965 117.838 30.4783 118.461 30.845C119.121 31.2117 119.965 31.5417 120.991 31.835C122.018 32.0917 123.081 32.4033 124.181 32.77C125.318 33.1 126.381 33.5767 127.371 34.2C128.398 34.8233 129.223 35.6483 129.846 36.675C130.506 37.7017 130.836 39.0217 130.836 40.635C130.836 43.2383 129.901 45.31 128.031 46.85C126.161 48.3533 123.613 49.105 120.386 49.105ZM136.465 48.5V9.835H143.945V48.5H136.465ZM141.965 32.66V26.005H161.435V32.66H141.965ZM141.965 16.435V9.835H162.37V16.435H141.965ZM167.492 48.5V8.735H174.697V48.5H167.492ZM193.566 49.05C190.889 49.05 188.469 48.445 186.306 47.235C184.179 45.9883 182.474 44.32 181.191 42.23C179.944 40.1033 179.321 37.7383 179.321 35.135C179.321 32.5317 179.944 30.2033 181.191 28.15C182.437 26.06 184.142 24.41 186.306 23.2C188.469 21.9533 190.871 21.33 193.511 21.33C196.224 21.33 198.644 21.9533 200.771 23.2C202.934 24.41 204.639 26.06 205.886 28.15C207.132 30.2033 207.756 32.5317 207.756 35.135C207.756 37.7383 207.132 40.1033 205.886 42.23C204.639 44.32 202.934 45.9883 200.771 47.235C198.644 48.445 196.242 49.05 193.566 49.05ZM193.511 42.34C194.867 42.34 196.059 42.0467 197.086 41.46C198.149 40.8367 198.956 39.9933 199.506 38.93C200.092 37.83 200.386 36.5833 200.386 35.19C200.386 33.7967 200.092 32.5683 199.506 31.505C198.919 30.4417 198.112 29.6167 197.086 29.03C196.059 28.4067 194.867 28.095 193.511 28.095C192.191 28.095 191.017 28.4067 189.991 29.03C188.964 29.6167 188.157 30.4417 187.571 31.505C186.984 32.5683 186.691 33.7967 186.691 35.19C186.691 36.5833 186.984 37.83 187.571 38.93C188.157 39.9933 188.964 40.8367 189.991 41.46C191.017 42.0467 192.191 42.34 193.511 42.34ZM218.898 48.5L208.943 21.935H216.203L222.693 41.24L220.493 41.295L227.148 21.935H232.373L239.028 41.295L236.828 41.24L243.318 21.935H250.578L240.678 48.5H235.453L228.743 30.13H230.778L224.068 48.5H218.898Z" fill="#FFFFFF"/>
</svg>
