<svg width="288" height="88" viewBox="0 0 288 88" fill="none" xmlns="http://www.w3.org/2000/svg">
<g clip-path="url(#clip0_26_54)">
<path d="M70 26L38.5 8.5L7 26V61L38.5 78.5L70 61M20.5133 53.2969L38.2335 63.1414L55.9537 53.2969V33.6077L38.2335 23.7632L20.5133 33.6077" stroke="#FFFFFF" stroke-width="8"/>
<path d="M77.19 64.5V24.735H84.395V64.5H77.19ZM101.889 65.05C99.4689 65.05 97.2872 64.445 95.3439 63.235C93.4005 62.025 91.8789 60.375 90.7789 58.285C89.6789 56.195 89.1289 53.8483 89.1289 51.245C89.1289 48.605 89.6789 46.24 90.7789 44.15C91.8789 42.06 93.4005 40.41 95.3439 39.2C97.2872 37.99 99.4689 37.385 101.889 37.385C103.796 37.385 105.501 37.77 107.004 38.54C108.507 39.31 109.699 40.3917 110.579 41.785C111.496 43.1417 111.991 44.6817 112.064 46.405V55.975C111.991 57.735 111.496 59.2933 110.579 60.65C109.699 62.0067 108.507 63.0883 107.004 63.895C105.501 64.665 103.796 65.05 101.889 65.05ZM103.209 58.395C105.226 58.395 106.857 57.735 108.104 56.415C109.351 55.0583 109.974 53.3167 109.974 51.19C109.974 49.7967 109.681 48.5683 109.094 47.505C108.544 46.405 107.756 45.5617 106.729 44.975C105.739 44.3517 104.566 44.04 103.209 44.04C101.889 44.04 100.716 44.3517 99.6889 44.975C98.6989 45.5617 97.9105 46.405 97.3239 47.505C96.7739 48.5683 96.4989 49.7967 96.4989 51.19C96.4989 52.62 96.7739 53.885 97.3239 54.985C97.9105 56.0483 98.6989 56.8917 99.6889 57.515C100.716 58.1017 101.889 58.395 103.209 58.395ZM109.589 64.5V57.35L110.744 50.86L109.589 44.48V37.935H116.739V64.5H109.589ZM132.243 65.105C130.74 65.105 129.255 64.9033 127.788 64.5C126.358 64.0967 125.038 63.5467 123.828 62.85C122.618 62.1167 121.573 61.2367 120.693 60.21L124.983 55.865C125.9 56.8917 126.963 57.6617 128.173 58.175C129.383 58.6883 130.721 58.945 132.188 58.945C133.361 58.945 134.241 58.78 134.828 58.45C135.451 58.12 135.763 57.625 135.763 56.965C135.763 56.2317 135.433 55.6633 134.773 55.26C134.15 54.8567 133.325 54.5267 132.298 54.27C131.271 53.9767 130.19 53.665 129.053 53.335C127.953 52.9683 126.89 52.51 125.863 51.96C124.836 51.3733 123.993 50.585 123.333 49.595C122.71 48.5683 122.398 47.2483 122.398 45.635C122.398 43.9483 122.801 42.4817 123.608 41.235C124.451 39.9883 125.643 39.0167 127.183 38.32C128.723 37.6233 130.538 37.275 132.628 37.275C134.828 37.275 136.808 37.66 138.568 38.43C140.365 39.2 141.85 40.355 143.023 41.895L138.678 46.24C137.871 45.25 136.955 44.535 135.928 44.095C134.938 43.655 133.856 43.435 132.683 43.435C131.62 43.435 130.795 43.6 130.208 43.93C129.658 44.26 129.383 44.7183 129.383 45.305C129.383 45.965 129.695 46.4783 130.318 46.845C130.978 47.2117 131.821 47.5417 132.848 47.835C133.875 48.0917 134.938 48.4033 136.038 48.77C137.175 49.1 138.238 49.5767 139.228 50.2C140.255 50.8233 141.08 51.6483 141.703 52.675C142.363 53.7017 142.693 55.0217 142.693 56.635C142.693 59.2383 141.758 61.31 139.888 62.85C138.018 64.3533 135.47 65.105 132.243 65.105ZM156.681 65.105C155.178 65.105 153.693 64.9033 152.226 64.5C150.796 64.0967 149.476 63.5467 148.266 62.85C147.056 62.1167 146.011 61.2367 145.131 60.21L149.421 55.865C150.338 56.8917 151.401 57.6617 152.611 58.175C153.821 58.6883 155.16 58.945 156.626 58.945C157.8 58.945 158.68 58.78 159.266 58.45C159.89 58.12 160.201 57.625 160.201 56.965C160.201 56.2317 159.871 55.6633 159.211 55.26C158.588 54.8567 157.763 54.5267 156.736 54.27C155.71 53.9767 154.628 53.665 153.491 53.335C152.391 52.9683 151.328 52.51 150.301 51.96C149.275 51.3733 148.431 50.585 147.771 49.595C147.148 48.5683 146.836 47.2483 146.836 45.635C146.836 43.9483 147.24 42.4817 148.046 41.235C148.89 39.9883 150.081 39.0167 151.621 38.32C153.161 37.6233 154.976 37.275 157.066 37.275C159.266 37.275 161.246 37.66 163.006 38.43C164.803 39.2 166.288 40.355 167.461 41.895L163.116 46.24C162.31 45.25 161.393 44.535 160.366 44.095C159.376 43.655 158.295 43.435 157.121 43.435C156.058 43.435 155.233 43.6 154.646 43.93C154.096 44.26 153.821 44.7183 153.821 45.305C153.821 45.965 154.133 46.4783 154.756 46.845C155.416 47.2117 156.26 47.5417 157.286 47.835C158.313 48.0917 159.376 48.4033 160.476 48.77C161.613 49.1 162.676 49.5767 163.666 50.2C164.693 50.8233 165.518 51.6483 166.141 52.675C166.801 53.7017 167.131 55.0217 167.131 56.635C167.131 59.2383 166.196 61.31 164.326 62.85C162.456 64.3533 159.908 65.105 156.681 65.105ZM172.76 64.5V25.835H180.24V64.5H172.76ZM178.26 48.66V42.005H197.73V48.66H178.26ZM178.26 32.435V25.835H198.665V32.435H178.26ZM203.787 64.5V24.735H210.992V64.5H203.787ZM229.861 65.05C227.184 65.05 224.764 64.445 222.601 63.235C220.474 61.9883 218.769 60.32 217.486 58.23C216.239 56.1033 215.616 53.7383 215.616 51.135C215.616 48.5317 216.239 46.2033 217.486 44.15C218.732 42.06 220.437 40.41 222.601 39.2C224.764 37.9533 227.166 37.33 229.806 37.33C232.519 37.33 234.939 37.9533 237.066 39.2C239.229 40.41 240.934 42.06 242.181 44.15C243.427 46.2033 244.051 48.5317 244.051 51.135C244.051 53.7383 243.427 56.1033 242.181 58.23C240.934 60.32 239.229 61.9883 237.066 63.235C234.939 64.445 232.537 65.05 229.861 65.05ZM229.806 58.34C231.162 58.34 232.354 58.0467 233.381 57.46C234.444 56.8367 235.251 55.9933 235.801 54.93C236.387 53.83 236.681 52.5833 236.681 51.19C236.681 49.7967 236.387 48.5683 235.801 47.505C235.214 46.4417 234.407 45.6167 233.381 45.03C232.354 44.4067 231.162 44.095 229.806 44.095C228.486 44.095 227.312 44.4067 226.286 45.03C225.259 45.6167 224.452 46.4417 223.866 47.505C223.279 48.5683 222.986 49.7967 222.986 51.19C222.986 52.5833 223.279 53.83 223.866 54.93C224.452 55.9933 225.259 56.8367 226.286 57.46C227.312 58.0467 228.486 58.34 229.806 58.34ZM255.193 64.5L245.238 37.935H252.498L258.988 57.24L256.788 57.295L263.443 37.935H268.668L275.323 57.295L273.123 57.24L279.613 37.935H286.873L276.973 64.5H271.748L265.038 46.13H267.073L260.363 64.5H255.193Z" fill="#FFFFFF"/>
</g>
<defs>
<clipPath id="clip0_26_54">
<rect width="288" height="87" fill="white" transform="translate(0 0.5)"/>
</clipPath>
</defs>
</svg>
