<svg width="27" height="20" viewBox="0 0 27 20" fill="none" xmlns="http://www.w3.org/2000/svg">
<path d="M22.6174 1.68915C25.5636 6.04768 27.0186 10.964 26.4746 16.6238C26.4724 16.6477 26.46 16.6697 26.4404 16.6841C24.2093 18.3325 22.0477 19.3329 19.9164 19.9963C19.8998 20.0014 19.882 20.0011 19.8656 19.9955C19.8492 19.99 19.8349 19.9793 19.8248 19.9652C19.3324 19.2758 18.885 18.5491 18.493 17.7859C18.4705 17.741 18.4911 17.6868 18.5374 17.6691C19.2479 17.3997 19.9236 17.0769 20.5735 16.6946C20.6247 16.6645 20.6279 16.5906 20.5806 16.5552C20.4427 16.4522 20.3061 16.3439 20.1753 16.2356C20.1509 16.2156 20.1179 16.2117 20.0902 16.2251C15.871 18.1855 11.249 18.1855 6.97989 16.2251C6.95218 16.2127 6.91924 16.2169 6.89544 16.2366C6.765 16.3449 6.62805 16.4522 6.49142 16.5552C6.44413 16.5906 6.44805 16.6645 6.49957 16.6946C7.14946 17.0697 7.82511 17.3997 8.53467 17.6704C8.58065 17.6881 8.6025 17.741 8.57967 17.7859C8.1962 18.5501 7.74881 19.2768 7.24728 19.9662C7.22544 19.994 7.18957 20.0068 7.15565 19.9963C5.03446 19.3329 2.87283 18.3325 0.641751 16.6841C0.623164 16.6697 0.609794 16.6467 0.607838 16.6228C0.153273 11.7271 1.07968 6.77016 4.46153 1.68816C4.46968 1.67471 4.48207 1.66421 4.49642 1.65798C6.16044 0.88956 7.94315 0.324237 9.80641 0.00138313C9.84032 -0.00386653 9.87424 0.0118824 9.89185 0.042068C10.1221 0.452197 10.3852 0.978148 10.5633 1.40796C12.5273 1.10611 14.5219 1.10611 16.5271 1.40796C16.7051 0.987334 16.9591 0.452197 17.1884 0.042068C17.1965 0.0270933 17.2092 0.0150963 17.2245 0.00778993C17.2399 0.000483532 17.2571 -0.00175878 17.2738 0.00138313C19.138 0.325221 20.9207 0.890544 22.5835 1.65798C22.5981 1.66421 22.6102 1.67471 22.6174 1.68915V1.68915ZM11.5617 10.9974C11.5823 9.55018 10.5336 8.3526 9.21717 8.3526C7.91152 8.3526 6.87294 9.53968 6.87294 10.9974C6.87294 12.4549 7.93207 13.642 9.21717 13.642C10.5231 13.642 11.5617 12.4549 11.5617 10.9974V10.9974ZM20.2298 10.9974C20.2503 9.55018 19.2016 8.3526 17.8855 8.3526C16.5796 8.3526 15.541 9.53968 15.541 10.9974C15.541 12.4549 16.6001 13.642 17.8855 13.642C19.2016 13.642 20.2298 12.4549 20.2298 10.9974V10.9974Z" fill="white"/>
</svg>
