<svg width="403" height="437" viewBox="0 0 403 437" fill="none" xmlns="http://www.w3.org/2000/svg">
<g clip-path="url(#clip0_124_811)">
<rect x="6" y="152.182" width="201.788" height="420.392" rx="30.2682" fill="#555555"/>
<rect x="14.4078" y="160.59" width="105.939" height="105.939" rx="25.2235" fill="black" fill-opacity="0.15"/>
<circle cx="42.9945" cy="189.177" r="17.6565" fill="#262626" stroke="#111111" stroke-width="5.04471"/>
<circle cx="42.9945" cy="237.942" r="17.6565" fill="#262626" stroke="#111111" stroke-width="5.04471"/>
<circle cx="91.76" cy="214.4" r="17.6565" fill="#262626" stroke="#111111" stroke-width="5.04471"/>
<circle cx="91.76" cy="177.406" r="8.40784" fill="#D9D9D9"/>
<circle cx="91.76" cy="249.713" r="8.40784" fill="#111111"/>
<circle cx="42.9945" cy="189.176" r="6.72628" fill="#111111"/>
<circle cx="42.9945" cy="237.942" r="6.72628" fill="#111111"/>
<circle cx="91.76" cy="214.4" r="6.72628" fill="#111111"/>
<path d="M127.362 340.33C127.049 340.574 121.549 343.672 121.549 350.564C121.549 358.535 128.546 361.355 128.754 361.425C128.72 361.598 127.641 365.288 125.065 369.048C122.767 372.355 120.365 375.661 116.71 375.661C113.056 375.661 112.116 373.538 107.904 373.538C103.796 373.538 102.334 375.731 98.9922 375.731C95.6504 375.731 93.3181 372.668 90.638 368.908C87.5399 364.488 85.0337 357.63 85.0337 351.121C85.0337 340.678 91.8217 335.143 98.5048 335.143C102.056 335.143 105.014 337.475 107.242 337.475C109.365 337.475 112.672 335.004 116.71 335.004C118.242 335.004 123.742 335.144 127.362 340.33V340.33ZM114.796 330.584C116.467 328.6 117.65 325.85 117.65 323.1C117.65 322.717 117.616 322.334 117.546 322.021C114.831 322.125 111.593 323.831 109.644 326.093C108.112 327.834 106.685 330.584 106.685 333.369C106.685 333.786 106.755 334.204 106.79 334.343C106.964 334.378 107.242 334.413 107.521 334.413C109.957 334.413 113.02 332.777 114.796 330.584V330.584Z" fill="white" fill-opacity="0.1"/>
<path d="M4.31848 276.618C4.31848 275.689 5.07135 274.937 6.00005 274.937V274.937L6.00005 316.976V316.976C5.07135 316.976 4.31848 316.223 4.31848 315.294L4.31848 276.618Z" fill="#979797"/>
<path d="M207.788 271.574V271.574C208.717 271.574 209.47 272.327 209.47 273.255V290.071C209.47 291 208.717 291.753 207.788 291.753V291.753V271.574Z" fill="#979797"/>
<path d="M207.788 300.16V300.16C208.717 300.16 209.47 300.913 209.47 301.842V318.657C209.47 319.586 208.717 320.339 207.788 320.339V320.339V300.16Z" fill="#979797"/>
<rect x="134.64" width="265.385" height="552.886" rx="39.8078" fill="#555555"/>
<path d="M400.026 161.443V161.443C401.247 161.443 402.237 162.433 402.237 163.654V214.52C402.237 215.741 401.247 216.731 400.026 216.731V216.731V161.443Z" fill="#979797"/>
<path d="M132.429 159.231C132.429 158.01 133.419 157.02 134.64 157.02V157.02V183.558V183.558C133.419 183.558 132.429 182.568 132.429 181.347V159.231Z" fill="#979797"/>
<path d="M132.429 196.827C132.429 195.606 133.419 194.616 134.64 194.616V194.616V221.154V221.154C133.419 221.154 132.429 220.164 132.429 218.943V196.827Z" fill="#979797"/>
<rect x="139.063" y="4.42322" width="256.539" height="544.04" rx="35.3847" fill="#111111" stroke="black" stroke-width="4.42309"/>
<rect x="234.16" y="15.481" width="66.3463" height="17.6923" rx="8.84617" fill="black"/>
<circle cx="291.66" cy="24.3269" r="4.42309" fill="#111111"/>
</g>
<defs>
<clipPath id="clip0_124_811">
<rect width="402" height="436" fill="white" transform="translate(0.5 0.0332031)"/>
</clipPath>
</defs>
</svg>
