<svg width="527" height="307" viewBox="0 0 527 307" fill="none" xmlns="http://www.w3.org/2000/svg">
<g clip-path="url(#clip0_124_1345)">
<path d="M483.123 2.43848H43.4695C39.4794 2.43848 36.2449 5.67486 36.2449 9.66713V282.614C36.2449 286.606 39.4794 289.843 43.4695 289.843H483.123C487.113 289.843 490.347 286.606 490.347 282.614V9.66713C490.347 5.67486 487.113 2.43848 483.123 2.43848Z" fill="#11111A"/>
<path d="M483.123 2.43845C485.047 2.46137 486.884 3.24224 488.237 4.61173C489.589 5.98122 490.347 7.82893 490.347 9.7542V282.614C490.347 284.531 489.586 286.37 488.231 287.726C486.876 289.081 485.039 289.843 483.123 289.843H43.4693C41.5533 289.843 39.7157 289.081 38.3608 287.726C37.0059 286.37 36.2448 284.531 36.2448 282.614V9.7542C36.2447 7.82893 37.003 5.98122 38.3554 4.61173C39.7079 3.24224 41.5453 2.46137 43.4693 2.43845H483.123ZM483.123 -0.174316H43.4693C40.8527 -0.15135 38.3511 0.904817 36.509 2.76429C34.6669 4.62377 33.6334 7.13601 33.6335 9.7542V282.614C33.6335 285.224 34.6698 287.727 36.5144 289.573C38.3589 291.419 40.8607 292.456 43.4693 292.456H483.123C485.731 292.456 488.233 291.419 490.078 289.573C491.922 287.727 492.959 285.224 492.959 282.614V9.7542C492.959 7.13601 491.925 4.62377 490.083 2.76429C488.241 0.904817 485.739 -0.15135 483.123 -0.174316Z" fill="#4B4C52"/>
<path d="M526.296 287.143H0.296143V299.937H526.296V287.143Z" fill="#414159"/>
<path d="M0.296143 299.946L0.905443 300.991C2.21083 303.096 4.00173 304.859 6.12801 306.129C7.00199 306.716 8.03509 307.02 9.08747 307H517.505C518.557 307.02 519.59 306.716 520.464 306.129C522.583 304.879 524.35 303.111 525.6 300.991L526.296 299.946H0.296143Z" fill="#11111A"/>
</g>
<defs>
<clipPath id="clip0_124_1345">
<rect width="526" height="307" fill="white" transform="translate(0.296143)"/>
</clipPath>
</defs>
</svg>
