<svg width="503" height="409" viewBox="0 0 503 409" fill="none" xmlns="http://www.w3.org/2000/svg">
<g clip-path="url(#clip0_124_1110)">
<path d="M496.539 0.0664062H6.46047C3.28118 0.0664062 0.703857 2.65419 0.703857 5.84639V322.155C0.703857 325.348 3.28118 327.936 6.46047 327.936H496.539C499.719 327.936 502.296 325.348 502.296 322.155V5.84639C502.296 2.65419 499.719 0.0664062 496.539 0.0664062Z" fill="#11111A"/>
<path d="M0.703857 296.964H502.296V322.203C502.296 323.737 501.69 325.207 500.61 326.29C499.53 327.375 498.066 327.984 496.539 327.984H6.46047C4.93371 327.984 3.4695 327.375 2.38992 326.29C1.31036 325.207 0.703857 323.737 0.703857 322.203V296.964Z" fill="#262636"/>
<path d="M289.014 327.984V400.33H213.986V327.984H251.5C249.959 327.971 248.431 328.266 247.005 328.853C245.58 329.438 244.284 330.303 243.195 331.398C242.106 332.491 241.243 333.792 240.66 335.224C240.076 336.656 239.782 338.189 239.795 339.737V377.017C239.785 379.343 240.464 381.618 241.744 383.556C243.024 385.494 244.847 387.008 246.983 387.905C249.119 388.802 251.473 389.043 253.746 388.597C256.019 388.151 258.108 387.038 259.752 385.398C261.947 383.163 263.186 380.156 263.205 377.017V339.737C263.205 336.62 261.972 333.63 259.776 331.426C257.582 329.222 254.605 327.984 251.5 327.984H289.014Z" fill="#11111A"/>
<path d="M354.063 396.187H148.937C136.777 396.124 124.711 398.312 113.341 402.642V409H389.563V402.642C378.229 398.304 366.192 396.116 354.063 396.187Z" fill="#2C2C40"/>
<path d="M389.563 402.643H113.341V409.097H389.563V402.643Z" fill="#11111A"/>
</g>
<defs>
<clipPath id="clip0_124_1110">
<rect width="501.592" height="408.934" fill="white" transform="translate(0.703857 0.0664062)"/>
</clipPath>
</defs>
</svg>
