<svg width="24" height="20" viewBox="0 0 24 20" fill="none" xmlns="http://www.w3.org/2000/svg">
<path d="M23.7645 2.81405C23.0085 3.13936 22.2139 3.36589 21.4 3.48804C21.7805 3.42282 22.3404 2.73795 22.5632 2.46074C22.9018 2.0426 23.1598 1.56525 23.3242 1.05295C23.3242 1.0149 23.3622 0.960549 23.3242 0.933371C23.305 0.922905 23.2835 0.91742 23.2617 0.91742C23.2398 0.91742 23.2183 0.922905 23.1992 0.933371C22.3155 1.41192 21.375 1.77717 20.3999 2.02047C20.3659 2.03085 20.3297 2.03178 20.2953 2.02316C20.2608 2.01454 20.2293 1.9967 20.2042 1.97155C20.1283 1.88117 20.0466 1.79583 19.9596 1.71608C19.5619 1.35976 19.1107 1.06812 18.6225 0.851839C17.9635 0.581466 17.2516 0.464374 16.5407 0.509404C15.8509 0.552969 15.1774 0.737987 14.5622 1.05295C13.9563 1.38502 13.4239 1.83614 12.9968 2.37921C12.5475 2.93817 12.2232 3.58685 12.0456 4.28162C11.8991 4.9425 11.8825 5.62554 11.9967 6.29275C11.9967 6.40689 11.9967 6.4232 11.8988 6.40689C8.02333 5.83617 4.84358 4.46099 2.24542 1.50953C2.13128 1.37908 2.07149 1.37908 1.97909 1.50953C0.848508 3.22714 1.39749 5.94488 2.81071 7.28744C3.00096 7.46681 3.19663 7.64075 3.40318 7.80381C2.75523 7.75781 2.1231 7.58222 1.54425 7.28744C1.43554 7.21678 1.37575 7.25483 1.37031 7.38528C1.35491 7.56613 1.35491 7.74797 1.37031 7.92883C1.48373 8.79556 1.8253 9.61663 2.36011 10.3081C2.89492 10.9995 3.60377 11.5365 4.41418 11.8641C4.61173 11.9487 4.81759 12.0125 5.02839 12.0544C4.42854 12.1724 3.81332 12.1908 3.2075 12.1087C3.07705 12.0815 3.02813 12.1522 3.07705 12.2772C3.87607 14.4514 5.60998 15.1145 6.88188 15.4841C7.05582 15.5113 7.22975 15.5113 7.42543 15.5548C7.42543 15.5548 7.42543 15.5548 7.39282 15.5874C7.01777 16.2723 5.50127 16.7343 4.80553 16.9735C3.53563 17.4296 2.18167 17.6039 0.837637 17.4844C0.625654 17.4518 0.576735 17.4572 0.52238 17.4844C0.468025 17.5116 0.52238 17.5714 0.58217 17.6257C0.853944 17.8051 1.12572 17.9627 1.40836 18.1149C2.2498 18.5739 3.13936 18.9384 4.06087 19.202C8.83322 20.5174 14.2035 19.5499 17.7854 15.9896C20.601 13.1958 21.5903 9.34205 21.5903 5.48286C21.5903 5.33611 21.7696 5.24914 21.8729 5.17304C22.5852 4.61802 23.2132 3.96256 23.7373 3.22714C23.828 3.11752 23.8746 2.97794 23.8677 2.83579V2.83579C23.8677 2.75426 23.8677 2.77056 23.7645 2.81405Z" fill="white"/>
</svg>
