<svg width="29" height="20" viewBox="0 0 29 20" fill="none" xmlns="http://www.w3.org/2000/svg">
<path fill-rule="evenodd" clip-rule="evenodd" d="M25.8852 0.595455C27.1139 0.927273 28.0796 1.89545 28.4061 3.12273C29 5.35 29 10 29 10C29 10 29 14.65 28.4061 16.8773C28.0751 18.1091 27.1094 19.0773 25.8852 19.4045C23.6636 20 14.75 20 14.75 20C14.75 20 5.84092 20 3.61478 19.4045C2.3861 19.0727 1.42038 18.1045 1.09394 16.8773C0.5 14.65 0.5 10 0.5 10C0.5 10 0.5 5.35 1.09394 3.12273C1.42491 1.89091 2.39063 0.922727 3.61478 0.595455C5.84092 0 14.75 0 14.75 0C14.75 0 23.6636 0 25.8852 0.595455ZM19.3066 10L11.9027 14.2864V5.71364L19.3066 10Z" fill="white"/>
</svg>
